name D:\Gebruiker\Documents\~school~\WTK\thesis\model\3dpredictsim_Lars\Results\Test_Lars\Test1_alphaCst_exo.mot
datacolumns 126
datarows 4
range 1.16934255 1.20442283
endheader
time	pelvis_tilt	pelvis_list	pelvis_rotation	pelvis_tx	pelvis_ty	pelvis_tz	hip_flexion_l	hip_adduction_l	hip_rotation_l	hip_flexion_r	hip_adduction_r	hip_rotation_r	knee_angle_l	knee_angle_r	ankle_angle_l	ankle_angle_r	subtalar_angle_l	subtalar_angle_r	mtp_angle_l	mtp_angle_r	lumbar_extension	lumbar_bending	lumbar_rotation	arm_flex_l	arm_add_l	arm_rot_l	arm_flex_r	arm_add_r	arm_rot_r	elbow_flex_l	elbow_flex_r	pro_sup_l	pro_sup_r	glut_med1_l/activation	glut_med2_l/activation	glut_med3_l/activation	glut_min1_l/activation	glut_min2_l/activation	glut_min3_l/activation	semimem_l/activation	semiten_l/activation	bifemlh_l/activation	bifemsh_l/activation	sar_l/activation	add_long_l/activation	add_brev_l/activation	add_mag1_l/activation	add_mag2_l/activation	add_mag3_l/activation	tfl_l/activation	pect_l/activation	grac_l/activation	glut_max1_l/activation	glut_max2_l/activation	glut_max3_l/activation	iliacus_l/activation	psoas_l/activation	quad_fem_l/activation	gem_l/activation	peri_l/activation	rect_fem_l/activation	vas_med_l/activation	vas_int_l/activation	vas_lat_l/activation	med_gas_l/activation	lat_gas_l/activation	soleus_l/activation	tib_post_l/activation	flex_dig_l/activation	flex_hal_l/activation	tib_ant_l/activation	per_brev_l/activation	per_long_l/activation	per_tert_l/activation	ext_dig_l/activation	ext_hal_l/activation	ercspn_l/activation	intobl_l/activation	extobl_l/activation	glut_med1_r/activation	glut_med2_r/activation	glut_med3_r/activation	glut_min1_r/activation	glut_min2_r/activation	glut_min3_r/activation	semimem_r/activation	semiten_r/activation	bifemlh_r/activation	bifemsh_r/activation	sar_r/activation	add_long_r/activation	add_brev_r/activation	add_mag1_r/activation	add_mag2_r/activation	add_mag3_r/activation	tfl_r/activation	pect_r/activation	grac_r/activation	glut_max1_r/activation	glut_max2_r/activation	glut_max3_r/activation	iliacus_r/activation	psoas_r/activation	quad_fem_r/activation	gem_r/activation	peri_r/activation	rect_fem_r/activation	vas_med_r/activation	vas_int_r/activation	vas_lat_r/activation	med_gas_r/activation	lat_gas_r/activation	soleus_r/activation	tib_post_r/activation	flex_dig_r/activation	flex_hal_r/activation	tib_ant_r/activation	per_brev_r/activation	per_long_r/activation	per_tert_r/activation	ext_dig_r/activation	ext_hal_r/activation	ercspn_r/activation	intobl_r/activation	extobl_r/activation	
          1.16934255	         -2.92845242	         -1.22255879	          6.88320918	          1.46167819	          0.86013477	         -0.00170139	        -14.89949512	         -1.58842356	          8.17040743	         32.10399887	          1.28821119	         -0.90385051	        -17.13300317	        -17.09597893	         -8.23652315	          8.10213692	         14.33071201	          2.26976311	         29.87047090	         -0.09974305	         -0.54372172	         -0.76788580	         -2.14968334	          3.68539069	        -13.50758193	         17.36543760	        -10.79640054	        -13.52709296	          7.95653149	         41.57295062	         17.46377735	         86.51662706	         86.51662706	          0.15978898	          0.08533619	          0.06343810	          0.21057372	          0.13537158	          0.09785410	          0.05000208	          0.05000031	          0.05000029	          0.05000038	          0.10188778	          0.10797166	          0.05000132	          0.05000160	          0.05000171	          0.05000065	          0.19215781	          0.05014051	          0.05000243	          0.05000685	          0.05000399	          0.05000230	          0.33633450	          0.51997155	          0.05002560	          0.05000297	          0.05000082	          0.17670543	          0.10905686	          0.09196954	          0.09275941	          0.14773856	          0.22178156	          0.05937555	          0.15172172	          0.17005626	          0.19110094	          0.11499145	          0.37351878	          0.33657179	          0.05000029	          0.26421839	          0.05000026	          0.05000001	          0.05000009	          0.05000008	          0.05000049	          0.05000029	          0.05000060	          0.05000064	          0.05000061	          0.05000155	          0.05974454	          0.05974351	          0.17786542	          0.05000131	          0.05004647	          0.07043804	          0.15434615	          0.15655089	          0.15589052	          0.13349481	          0.05000164	          0.05972560	          0.05974354	          0.05000044	          0.08897279	          0.11394746	          0.05974406	          0.05813123	          0.15281030	          0.05000215	          0.05161644	          0.05169537	          0.13720104	          0.14149293	          0.11818697	          0.05974451	          0.05974450	          0.05974451	          0.05000013	          0.05972244	          0.05974447	          0.57242341	          0.32805803	          0.18419451	          0.28221863	          0.59106141	          0.36074843	          0.05000032	          0.11566486	          0.10209968	
          1.18103598	         -2.92037495	         -1.15734088	          7.05372889	          1.48017918	          0.85886942	         -0.00141395	        -15.01295257	         -1.75363547	          7.93473904	         31.41689035	          1.52469011	         -0.71012773	        -18.49774905	        -16.99723800	        -10.79625651	          7.56076278	         14.85620178	          1.86426111	         30.95896803	         -0.10079979	         -0.31255015	         -0.62624571	         -2.22512179	          3.30296827	        -13.56116912	         17.63303332	        -12.06259793	        -13.51512484	          7.76455852	         42.63325849	         17.48050206	         86.51662706	         86.51662706	          0.13372693	          0.07141766	          0.06768837	          0.17622857	          0.11329213	          0.08189394	          0.05360205	          0.05000018	          0.05000032	          0.05000020	          0.08526975	          0.19629340	          0.14327624	          0.22653639	          0.05012907	          0.08007290	          0.16081631	          0.05572538	          0.05000110	          0.05000276	          0.05000203	          0.05000228	          0.28147731	          0.43516263	          0.06799890	          0.07139009	          0.06337062	          0.14788422	          0.09850012	          0.12168987	          0.08436843	          0.12364193	          0.18560829	          0.05000001	          0.12697543	          0.14231959	          0.15993179	          0.31952374	          0.37936268	          0.31591474	          0.46616079	          0.41461503	          0.26431243	          0.06140376	          0.07138815	          0.05212644	          0.05815247	          0.07003228	          0.10274174	          0.05000044	          0.05000097	          0.05000086	          0.05000007	          0.05000011	          0.14885507	          0.05000006	          0.05000025	          0.05894952	          0.12917198	          0.30694023	          0.23971729	          0.14416998	          0.05000101	          0.05000114	          0.05000030	          0.05974466	          0.12715460	          0.14028710	          0.05000008	          0.05000016	          0.32276210	          0.06023400	          0.06346867	          0.07138816	          0.25516823	          0.25010716	          0.21661800	          0.05000000	          0.05000001	          0.05000000	          0.05000004	          0.05000031	          0.05000019	          0.71708202	          0.32017323	          0.19473257	          0.59665225	          0.64216540	          0.41735122	          0.05000001	          0.09679956	          0.08544690	
          1.19272940	         -2.90665797	         -1.09927475	          7.19260001	          1.49884284	          0.85731004	         -0.00115078	        -14.94189573	         -1.88767482	          7.69044713	         30.58283609	          1.73756431	         -0.44543382	        -20.22125135	        -17.49047223	        -13.09816669	          7.02170189	         15.34460254	          1.43775090	         31.12085160	         -0.16989769	         -0.07421745	         -0.46555082	         -2.28721657	          2.86160261	        -13.62240473	         17.83251380	        -13.29881223	        -13.51536802	          7.65520528	         43.67567566	         17.45773533	         86.51662706	         86.51662706	          0.11191591	          0.05976929	          0.05664834	          0.14748523	          0.09481391	          0.06853689	          0.07988251	          0.05974470	          0.05974540	          0.05000043	          0.07136223	          0.16427771	          0.29606727	          0.18958813	          0.08108690	          0.07922060	          0.13458671	          0.07105300	          0.05975658	          0.05065689	          0.05974380	          0.05974721	          0.23556750	          0.36418874	          0.05975840	          0.05974650	          0.05303472	          0.12376384	          0.08243448	          0.10184190	          0.07060770	          0.10347555	          0.15533500	          0.05000001	          0.10626534	          0.11910686	          0.13384644	          0.46260084	          0.44039398	          0.32275962	          0.70001641	          0.51883406	          0.35773234	          0.08149342	          0.05974453	          0.05000060	          0.24704182	          0.26100762	          0.34257267	          0.05004684	          0.05000088	          0.05000043	          0.08314846	          0.05000148	          0.13372854	          0.05000026	          0.05000102	          0.07138829	          0.12201037	          0.25687759	          0.22372584	          0.16916390	          0.05000022	          0.07138713	          0.11741089	          0.05000021	          0.17627884	          0.16706969	          0.05000085	          0.05000023	          0.27011866	          0.05040995	          0.24372613	          0.05974453	          0.21354955	          0.20931399	          0.18128699	          0.05974453	          0.05974453	          0.05974451	          0.05000012	          0.05974452	          0.05974455	          0.60532145	          0.33607950	          0.16881076	          0.49933648	          0.64871616	          0.34928017	          0.05000058	          0.08530085	          0.07151025	
          1.20442283	         -2.89014150	         -1.04823345	          7.29477333	          1.51738301	          0.85551246	         -0.00088884	        -14.66683235	         -1.99178506	          7.45054751	         29.65433469	          1.93898163	         -0.15302076	        -22.32478359	        -18.08804224	        -14.81754073	          6.78934159	         15.77286599	          0.97568522	         29.68879086	         -0.17665706	          0.14655524	         -0.28912673	         -2.33627737	          2.40685145	        -13.68797556	         17.97096424	        -14.43845865	        -13.52900373	          7.66842560	         44.67711412	         17.35261448	         86.51662706	         86.51662706	          0.18845375	          0.05002091	          0.05000015	          0.14039680	          0.07934964	          0.05735886	          0.11679497	          0.05000030	          0.05000088	          0.05000016	          0.05973603	          0.13748360	          0.24777787	          0.15866584	          0.06786170	          0.06629971	          0.11263526	          0.05946458	          0.05001026	          0.05000210	          0.05000147	          0.05000251	          0.19714573	          0.35384974	          0.05001167	          0.05000206	          0.05000025	          0.10357757	          0.08190488	          0.08523991	          0.06039243	          0.08659836	          0.12999939	          0.05000007	          0.08893314	          0.09968022	          0.11201570	          0.41833545	          0.37097353	          0.27899749	          0.58584230	          0.67693512	          0.29938535	          0.11811259	          0.05000002	          0.05000004	          0.33804377	          0.41983266	          0.52600343	          0.23080922	          0.23401583	          0.40821825	          0.06958685	          0.09774134	          0.11191701	          0.07138814	          0.05000139	          0.05974471	          0.10211013	          0.21498031	          0.21078736	          0.18103179	          0.05000020	          0.05974421	          0.09826267	          0.28042867	          0.23052369	          0.19344796	          0.05000020	          0.05000016	          0.22606155	          0.05000101	          0.28129861	          0.05000003	          0.24134469	          0.27845358	          0.23004637	          0.05000002	          0.05000004	          0.05000000	          0.05000001	          0.05000016	          0.05000012	          0.77821536	          0.28126390	          0.14127721	          0.71865652	          0.69257056	          0.53059867	          0.07385262	          0.07138816	          0.05984670	
